<svg display="none" xmlns="http://www.w3.org/2000/svg" xmlns:xlink="http://www.w3.org/1999/xlink">

    <symbol id="logo" viewBox="0 0 48 32">
        <path d="M8.45977 30.3059V32C6.12414 32 4.12874 31.2282 2.48276 29.6282C0.836782 28.0282 0 25.9859 0 23.5012V0H1.65517V9.03529H8.45977V10.7294H1.65517V23.1529C1.65517 25.2047 2.34483 26.8894 3.67816 28.2353C5.0115 29.5812 6.55632 30.3059 8.45977 30.3059Z" />
        <path d="M24.8276 9.03528V32H23.1724V9.03528H24.8276Z" />
        <path d="M24 3.01176C24.8126 3.01176 25.4713 2.33756 25.4713 1.50588C25.4713 0.674206 24.8126 0 24 0C23.1875 0 22.5287 0.674206 22.5287 1.50588C22.5287 2.33756 23.1875 3.01176 24 3.01176Z" />
        <path d="M48 30.3059V32C45.6644 32 43.669 31.2282 42.023 29.6282C40.377 28.0282 39.5402 25.9859 39.5402 23.5012V0H41.1954V9.03529H48V10.7294H41.1954V23.1529C41.1954 25.2047 41.885 26.8894 43.2184 28.2353C44.5517 29.5812 46.0965 30.3059 48 30.3059Z" />
    </symbol>

</svg>