
<svg display="none" xmlns="http://www.w3.org/2000/svg" xmlns:xlink="http://www.w3.org/1999/xlink">

    <symbol id="logo" viewBox="0 0 93 42">
        <path d="M27.423 10.8959C29.0968 10.3734 29.7942 7.90041 29.8221 6.542C29.6826 6.57683 19.6675 9.22399 19.6675 9.22399C19.6675 9.22399 29.7384 5.74089 29.8221 5.70605C27.8972 6.26335 4.10089 12.9857 4.10089 12.9857C2.23178 13.5082 0.697431 15.2498 0.223178 17.5834C0.0836925 18.1756 0 18.8374 0 19.5688L9.54084 16.5385C9.54084 16.5385 5.46785 27.9283 6.05369 36.0439C6.05369 36.0439 6.22108 32.4911 7.9507 26.0126C7.44855 29.7395 7.0301 33.6057 6.9743 36.5664C6.9464 38.0293 7.22538 39.4573 7.81122 40.7112L8.42495 42C9.37346 33.8844 11.131 23.4699 14.2834 15.0059L27.423 10.8959Z" fill="url(#paint0_linear)"/>
        <path d="M47.3975 12.4633C45.5563 13.1251 44.2452 15.3891 43.9383 15.9115C44.0778 15.3542 45.11 13.0206 46.8675 12.1846C46.3375 11.9408 45.7795 11.8363 45.1658 12.0105C42.4876 12.7419 38.1915 23.0519 43.9383 27.0923C46.0585 26.7092 50.9405 22.4249 48.7924 13.9262C48.7366 13.752 48.1787 13.0206 47.3975 12.4633ZM46.7001 15.4936C48.7366 19.8474 44.5241 24.4451 44.4683 24.3755C43.2688 21.5542 43.9941 19.0463 44.9147 17.3744H44.8868C44.9705 17.2351 45.0542 17.1306 45.11 16.9913C45.3611 16.5733 45.6121 16.225 45.8353 15.9464C46.7559 14.7273 47.3418 14.5183 47.3418 14.5183C47.3418 14.5183 47.007 14.9363 46.7001 15.4936Z" fill="url(#paint1_linear)"/>
        <path d="M62.6288 9.36331C62.6288 9.36331 62.2104 8.84085 61.6524 8.28355C61.1503 9.53747 60.5645 11.6273 60.3692 13.9959C60.3692 13.9959 60.2855 10.6172 61.2061 7.86558C60.3413 7.13413 59.2812 6.54199 58.528 7.27345C55.8219 9.9206 53.3949 20.1609 53.9807 22.9126C54.2597 24.271 54.9013 24.9676 55.9893 25.8036C55.7382 23.5047 57.1331 15.0408 59.2812 10.8611C58.779 13.2296 58.5559 17.8273 60.5645 21.9721C61.1503 22.8429 62.5731 22.8429 62.9078 22.7733C60.676 16.0857 62.6288 9.36331 62.6288 9.36331Z" fill="url(#paint2_linear)"/>
        <path d="M92.0607 8.4229C92.0328 8.28357 91.8654 8.28357 91.8376 8.4229C91.5028 9.99029 90.8054 10.8611 90.359 11.1397C89.4384 9.53749 89.1315 2.32746 89.1315 2.22297C89.1036 1.77016 88.3783 1.00388 87.4298 0.481415C85.756 1.28253 84.5843 3.30273 84.3053 3.79036C84.4448 3.2679 85.3375 1.17803 86.8997 0.237594C86.3418 0.0286075 85.7281 -0.0758856 85.1422 0.0634385C83.9705 0.307256 81.5714 4.93978 81.4319 9.36332C79.9533 13.7172 78.4748 15.1104 77.0799 15.4587C77.1915 15.8767 77.3589 16.1205 77.3589 16.1205C76.6615 15.5981 76.2988 13.8565 76.2988 13.8565C75.8525 11.7318 76.4383 9.74647 77.1078 8.28357C77.1078 8.24873 77.1357 8.24873 77.1357 8.2139C77.3868 7.6566 77.6658 7.2038 77.9168 6.82066C78.7817 5.42742 79.3117 5.11394 79.3117 5.11394C79.3117 5.11394 78.8933 5.77573 78.5306 6.61168C78.5306 7.16898 78.5306 7.93525 78.5306 8.56221C78.5027 9.39815 79.0327 10.0948 79.7023 10.1644C79.7302 10.1644 79.7581 10.1644 79.786 10.1644C80.0649 9.46783 80.7066 6.22853 80.7066 5.25326C80.7066 4.93978 80.595 4.6263 80.3997 4.41732C80.0928 4.10384 79.6744 3.68587 79.0885 3.37239C77.3868 4.13867 76.1593 6.22853 75.9083 6.71617C76.0477 6.1937 76.9683 4.06901 78.5585 3.12858C78.0005 2.91959 77.331 2.81509 76.5778 3.02408C75.155 3.37239 73.5649 8.28356 73.3417 9.43299C72.0026 13.543 70.4404 17.8273 67.6786 18.5239C67.7902 18.9419 67.9576 19.1857 67.9576 19.1857C67.0927 18.3846 66.9254 16.9217 66.9254 16.9217C66.8975 16.8172 66.8975 16.6778 66.8696 16.5385C67.6786 16.5037 68.8224 15.2498 69.6314 14.3442C71.9469 11.7318 71.64 7.83076 71.6121 7.58694C71.5842 7.37796 70.9147 6.6465 69.9661 6.12404C68.2923 6.82066 67.0369 8.7712 66.758 9.22401C66.8975 8.70154 67.8739 6.751 69.4082 5.84539C68.8224 5.60158 68.1528 5.49708 67.4554 5.6364C65.3631 6.08921 60.2021 17.3396 67.0091 21.2059C67.0091 21.2059 70.6636 21.5542 73.3138 14.2048C73.7044 15.8071 74.625 17.1655 76.2709 18.0014C78.8933 17.7924 80.595 15.2149 81.7667 12.3936C82.1572 13.7172 83.1894 15.2846 84.5285 15.9464C85.8397 15.2846 87.2066 13.9959 88.462 11.2094L88.4899 11.279C88.6852 11.906 89.2152 13.1251 89.829 14.0655C89.9405 14.2397 90.1358 14.2745 90.2753 14.17C91.5028 13.2296 92.8697 11.2442 92.0607 8.4229ZM67.8739 11.1745C67.9297 11.0352 67.9855 10.9307 68.0691 10.7914C68.655 9.64198 69.2408 8.94536 69.2408 8.94536C69.7988 8.21391 70.1335 8.00492 70.1335 8.00492C70.1335 8.00492 69.6314 8.80604 69.2687 9.74647C69.2129 12.2891 67.7344 15.1105 66.8417 16.0161C66.7301 14.1352 67.288 12.4633 67.8739 11.1745ZM86.7603 3.8252C87.2066 4.7308 87.3461 5.84538 87.2066 6.92515C86.7324 10.2341 85.477 12.115 84.9469 12.8116C85.0306 13.4734 85.3375 13.9262 85.3375 13.9262C85.0864 13.752 84.8912 13.4386 84.7238 13.0902C84.6959 13.0554 84.6959 13.0206 84.6959 12.9858C84.4169 12.324 84.2774 11.6622 84.2774 11.6622C83.6637 9.01502 84.4448 6.751 85.2538 5.28809C85.8955 4.13867 86.5371 3.44205 86.5371 3.44205C87.2624 2.60611 87.6809 2.46678 87.6809 2.46678C87.6809 2.46678 87.1787 3.05891 86.7603 3.8252Z" fill="url(#paint3_linear)"/>
        <path d="M32.1655 18.489C32.1655 18.489 31.775 17.8272 31.1891 17.2003C30.687 18.4542 30.1011 20.5092 29.9337 22.8778C29.9337 22.8778 29.85 19.534 30.7707 16.7823C30.1569 16.2599 29.4037 15.9116 28.7342 16.434C27.3393 17.5138 25.6655 22.0766 24.6333 25.2114C25.0238 22.7384 25.4423 20.4744 25.7771 19.743C25.3865 18.489 24.5217 17.4789 23.4058 17.3048C23.4058 17.3048 23.4058 17.3396 23.3779 17.4093C21.3693 28.4507 18.4122 31.1327 17.0173 31.2372C17.1289 31.69 17.3242 31.9686 17.3242 31.9686C17.101 31.8293 16.9336 31.5507 16.7942 31.2372V31.2024C16.5431 30.6102 16.3757 29.8788 16.292 29.2518C16.292 29.217 16.292 29.1822 16.2641 29.1473C16.2083 28.8687 16.1804 28.59 16.1804 28.3114C16.1804 28.2069 16.1804 28.1721 16.1804 28.1721C16.8778 28.1721 18.1053 28.0676 18.8585 27.1968C21.0624 24.7586 21.0066 20.7879 20.9787 20.5789C20.9508 20.4047 20.4487 19.6733 19.6676 19.116C17.7706 19.6385 16.3478 21.8677 16.0409 22.3553C16.2083 21.798 17.3242 19.4991 19.1375 18.7677C18.6075 18.489 18.0216 18.3497 17.4079 18.4542C15.5667 18.8025 10.4894 29.5305 16.1804 33.8495C16.1804 33.8495 19.5839 34.5462 22.4015 26.7092C22.2899 28.0676 22.1783 29.5305 22.0946 31.0979C22.0946 31.0979 22.8757 32.8394 23.6011 33.1181C23.6011 33.1181 26.8929 22.9822 28.9573 19.7081C28.232 21.8328 27.5904 25.9777 29.041 29.7395C29.5153 30.5406 30.8543 30.5406 31.1891 30.4709C29.6269 24.5496 32.1655 18.489 32.1655 18.489ZM18.7191 21.8328C18.8585 24.5496 17.0452 26.7092 16.0967 27.6496C16.1525 23.8182 18.7191 21.8328 18.7191 21.8328Z" fill="url(#paint4_linear)"/>
        <path d="M40.3117 15.9116C40.3117 15.9116 39.9211 15.4587 39.3632 14.9711C38.861 16.225 38.2473 18.3149 38.052 20.7531C38.052 20.7531 37.9683 17.3396 38.8889 14.588C38.0241 13.961 36.964 13.4385 36.2387 14.0655C33.5048 16.3643 31.6357 25.2463 32.1657 27.6496C32.4447 28.8338 33.0584 29.426 34.1464 30.1574C34.0627 29.426 33.8953 27.7193 34.3417 26.2564L33.5606 26.4654C34.1743 23.8182 35.2065 21.4845 35.2902 21.4845L34.4812 21.798C35.4297 19.534 36.964 17.1655 36.964 17.1655C36.964 17.1655 36.5735 19.7778 37.4104 21.7283L36.6013 21.4149C36.6013 21.4149 36.7129 24.0272 37.9125 25.4204L37.1314 25.5249C37.9404 28.0676 40.1164 27.5799 40.4512 27.5103C38.3031 21.798 40.3117 15.9116 40.3117 15.9116Z" fill="url(#paint5_linear)"/>
        <defs>
            <linearGradient id="paint0_linear" x1="15.6" y1="15.9945" x2="21.8875" y2="35.4662" gradientUnits="userSpaceOnUse">
                <stop stop-color="#FF9700"/>
                <stop offset="0.9977" stop-color="#FF6800"/>
                <stop offset="1" stop-color="#FF6802"/>
            </linearGradient>
            <linearGradient id="paint1_linear" x1="42.7159" y1="7.23882" x2="49.0033" y2="26.7106" gradientUnits="userSpaceOnUse">
                <stop stop-color="#FF9700"/>
                <stop offset="0.9977" stop-color="#FF6800"/>
                <stop offset="1" stop-color="#FF6802"/>
            </linearGradient>
            <linearGradient id="paint2_linear" x1="55.599" y1="3.07868" x2="61.8864" y2="22.5504" gradientUnits="userSpaceOnUse">
                <stop stop-color="#FF9700"/>
                <stop offset="0.9977" stop-color="#FF6800"/>
                <stop offset="1" stop-color="#FF6802"/>
            </linearGradient>
            <linearGradient id="paint3_linear" x1="74.6882" y1="-3.08511" x2="80.9756" y2="16.3866" gradientUnits="userSpaceOnUse">
                <stop stop-color="#FF9700"/>
                <stop offset="0.9977" stop-color="#FF6800"/>
                <stop offset="1" stop-color="#FF6802"/>
            </linearGradient>
            <linearGradient id="paint4_linear" x1="20.8689" y1="14.2932" x2="27.1564" y2="33.7649" gradientUnits="userSpaceOnUse">
                <stop stop-color="#FF9700"/>
                <stop offset="0.9977" stop-color="#FF6800"/>
                <stop offset="1" stop-color="#FF6802"/>
            </linearGradient>
            <linearGradient id="paint5_linear" x1="33.8291" y1="10.1084" x2="40.1166" y2="29.5801" gradientUnits="userSpaceOnUse">
                <stop stop-color="#FF9700"/>
                <stop offset="0.9977" stop-color="#FF6800"/>
                <stop offset="1" stop-color="#FF6802"/>
            </linearGradient>
        </defs>
    </symbol>

</svg>